<?xml version="1.0" encoding="UTF-8" standalone="no"?>
<svg
   viewBox="0 0 960 960"
   version="1.1"
   id="svg2"
   sodipodi:docname="Threads1.svg"
   inkscape:version="1.3 (0e150ed, 2023-07-21)"
   xmlns:inkscape="http://www.inkscape.org/namespaces/inkscape"
   xmlns:sodipodi="http://sodipodi.sourceforge.net/DTD/sodipodi-0.dtd"
   xmlns="http://www.w3.org/2000/svg"
   xmlns:svg="http://www.w3.org/2000/svg">
  <defs
     id="defs2" />
  <sodipodi:namedview
     id="namedview2"
     pagecolor="#ffffff"
     bordercolor="#000000"
     borderopacity="0.25"
     inkscape:showpageshadow="2"
     inkscape:pageopacity="0.0"
     inkscape:pagecheckerboard="0"
     inkscape:deskcolor="#d1d1d1"
     inkscape:zoom="0.24583333"
     inkscape:cx="477.9661"
     inkscape:cy="480"
     inkscape:window-width="1312"
     inkscape:window-height="449"
     inkscape:window-x="0"
     inkscape:window-y="38"
     inkscape:window-maximized="0"
     inkscape:current-layer="svg2" />
  <path
     id="path2"
     style="fill:#ffffff;stroke-width:1.36002;stroke-dasharray:none"
     d="m 493.82098,0.00961338 c -8.53782,0.1456515 -17.01216,0.42028884 -25.55627,0.92973564 -8.37518,0.49010628 -16.92385,1.20463238 -25.28494,2.11817008 -23.10208,2.5130815 -46.09707,6.6348854 -68.60803,12.5384699 -10.00678,2.625933 -20.11855,5.662114 -29.85787,9.00295 -5.92995,2.024912 -11.92847,4.243448 -17.834,6.574469 -3.90941,1.556902 -7.98905,3.243304 -11.84907,4.927639 -38.46306,16.758601 -74.20869,39.946721 -104.65583,68.857083 -9.0901,8.61375 -17.87006,17.95997 -25.98561,27.52981 -25.82838,30.42977 -46.52689,65.08182 -61.95323,101.85943 -4.27987,10.14945 -8.20568,20.541 -11.75396,30.91055 -7.99662,23.4407 -14.267119,47.45739 -19.01783,71.7607 -1.996193,10.25 -3.758462,20.7167 -5.240943,31.05054 -1.803888,12.54619 -3.236475,25.05562 -4.373836,37.68677 -0.766159,8.43809 -1.389132,17.02756 -1.873711,25.54447 -0.445445,7.91861 -0.802744,16.01833 -0.998683,23.95547 -0.489294,17.7725 -0.396564,35.55928 0.193601,53.32818 0.437558,12.73565 1.148195,25.6569 2.166307,38.35469 1.180957,14.62539 2.851489,29.28866 4.961886,43.77146 1.430414,9.80545 3.086742,19.58455 4.974287,29.2732 3.979163,20.46819 9.051422,40.8187 15.330042,60.74616 4.95467,15.76015 10.72646,31.37342 17.34361,46.56374 8.2114,18.88859 17.87249,37.35529 28.77253,54.80185 4.42961,7.07017 9.01098,13.91303 13.90017,20.71366 1.8613,2.56687 3.8441,5.27633 5.77,7.79146 6.76482,8.90991 14.0352,17.58017 21.63367,25.85288 20.69025,22.52383 44.38832,42.4596 70.15942,59.02452 13.90764,8.9729 28.64417,17.0306 43.70969,24.07499 17.64056,8.23307 35.89,15.1473 54.52123,20.78449 5.96873,1.80345 12.12791,3.52249 18.2282,5.08161 4.37374,1.11898 9.02354,2.22369 13.42232,3.20653 7.54425,1.67541 15.23575,3.17565 22.78788,4.46422 14.62246,2.46607 29.40652,4.24292 44.23939,5.37198 8.73675,0.67289 17.67431,1.12004 26.39628,1.35827 10.22383,0.25755 20.45406,0.23689 30.67708,-0.0479 4.95702,-0.14313 10.07583,-0.37478 15.03054,-0.65569 21.17802,-1.21179 42.29813,-3.53088 63.21529,-7.25079 33.56346,-6.03754 66.57353,-15.59918 97.74194,-29.51082 9.41586,-4.20239 18.87064,-8.90439 27.9715,-13.9593 5.53144,-3.08085 10.91809,-6.27265 16.20768,-9.60713 6.981,-4.41366 13.92584,-9.16766 20.59287,-14.14222 2.00016,-1.48823 3.83985,-2.90089 5.81068,-4.43425 4.87249,-3.81248 9.52921,-7.66688 14.18283,-11.76947 19.98792,-17.62949 37.66413,-37.92902 51.99415,-60.41719 14.60368,-22.81812 26.00839,-47.90082 33.34095,-74.05875 0.56657,-1.96087 1.05943,-3.86545 1.59842,-5.88123 1.96211,-7.64511 3.61223,-15.36212 4.94258,-23.10542 1.34875,-7.85138 2.39675,-15.92574 3.08057,-23.87492 0.38011,-4.39972 0.64055,-8.67858 0.81776,-13.09486 0.16154,-4.1189 0.21879,-8.3054 0.19007,-12.49373 -0.15303,-16.70104 -1.80004,-33.58567 -5.56601,-49.9502 -1.32594,-5.81338 -2.91245,-11.56907 -4.70482,-17.20526 -1.13247,-3.55093 -2.35726,-7.08888 -3.63582,-10.47927 -2.86723,-7.652 -6.23872,-15.28814 -9.94782,-22.53981 -2.18761,-4.28854 -4.60491,-8.64474 -7.08527,-12.78027 -10.77949,-18.05263 -24.36259,-34.36015 -39.72267,-48.69043 -4.35211,-4.05581 -9.03833,-8.12655 -13.75784,-11.93023 -10.20923,-8.23873 -21.15962,-15.7344 -32.38244,-22.37727 -9.08562,-5.39747 -18.40751,-10.139 -27.92501,-14.71828 -4.16198,-2.01883 -8.33776,-4.0095 -12.50435,-6.01902 -1.53561,-16.75372 -3.58489,-33.57945 -7.00326,-50.1076 -1.29702,-6.37111 -2.80401,-12.63598 -4.55824,-18.92031 -6.50738,-23.41946 -16.35216,-46.41355 -30.16271,-66.65881 -4.99089,-7.34002 -10.50053,-14.32841 -16.4982,-20.8723 -1.88161,-2.03235 -3.98518,-4.21982 -6.04456,-6.24625 -3.56393,-3.51449 -7.36028,-6.94112 -11.16405,-10.09265 -4.71199,-3.90612 -9.66301,-7.58521 -14.71282,-10.93735 -4.75251,-3.15805 -9.66708,-6.07014 -14.71157,-8.73675 -0.8636,-0.44951 -1.97972,-1.03087 -2.94397,-1.52547 -14.70156,-7.43322 -30.39692,-12.84973 -46.49561,-16.31348 -1.60588,-0.34203 -3.43567,-0.71476 -5.13525,-1.03362 -6.20083,-1.1713 -12.4546,-2.05941 -18.73378,-2.68657 -1.55613,-0.13622 -3.40806,-0.31745 -4.99154,-0.42924 -16.99517,-1.24381 -34.08776,-0.98528 -51.05273,0.58251 -4.41152,0.39964 -8.84191,0.90185 -13.26291,1.48841 -12.32744,1.63831 -24.72066,4.19706 -36.68742,7.83621 -11.91475,3.61399 -23.69529,8.34574 -34.76428,14.2281 -1.85679,0.99124 -3.68813,1.9942 -5.44612,3.01837 -5.24876,3.01128 -10.51008,6.4549 -15.4884,10.05592 -13.91489,10.06085 -26.51946,22.15508 -37.52509,35.42726 -0.75544,0.92988 -1.56313,1.89438 -2.33139,2.8643 -3.17683,3.92299 -6.13294,8.01583 -9.16429,12.05035 22.1787,15.29461 44.29447,30.68793 66.65466,45.71337 0.4331,0.14734 0.98961,0.48942 1.40497,0.36178 9.30569,-10.73396 18.81638,-21.51788 30.43188,-29.83198 12.74115,-9.1007 27.76414,-14.56653 43.06301,-17.49246 15.0801,-2.92456 30.48412,-3.78689 45.82069,-3.75286 16.51539,0.19374 33.1715,2.92143 48.39282,9.50558 19.1794,8.17594 35.9056,22.033 47.39933,39.43888 4.73674,7.07294 8.55936,14.75709 11.95184,22.51543 4.34789,9.72568 8.51378,19.53087 12.83949,29.2667 0.82116,1.87592 1.64186,3.75204 2.46246,5.6282 -22.02982,-1.70271 -44.00701,-3.64091 -66.05376,-4.8512 -7.66016,-0.40592 -15.47292,-0.7524 -23.12515,-0.92743 -9.80894,-0.24691 -19.62457,-0.31916 -29.4342,-0.0679 -6.20327,0.18588 -12.59313,0.53714 -18.84796,1.09819 -6.27177,0.55326 -12.66297,1.32841 -18.95801,2.32644 -6.0955,0.97225 -12.38604,2.17991 -18.34897,3.52143 -22.13759,4.97317 -43.8887,12.61928 -63.85003,23.59752 -15.78486,8.68474 -30.58636,19.62772 -43.00873,32.80256 -5.53328,5.86244 -10.72597,12.29861 -15.23251,19.07396 -1.53558,2.28356 -3.11703,4.82171 -4.55011,7.29062 -11.23958,19.26298 -17.71365,41.15452 -19.55941,63.34181 -0.60461,6.73116 -0.85002,13.49814 -0.63481,20.25432 0.0456,2.09769 0.21886,4.54587 0.35506,6.60458 0.29555,3.86232 0.74938,7.71184 1.35643,11.53756 0.15466,0.86228 0.33043,2.01358 0.52065,2.98666 4.03022,22.07676 13.94297,42.90809 27.76075,60.5278 7.4991,9.58195 16.27568,18.38347 25.79972,26.06529 2.84676,2.30633 5.83101,4.56759 8.75036,6.63679 13.18074,9.38407 27.62706,16.95622 42.75799,22.66985 1.42103,0.533 3.0674,1.13458 4.58579,1.66275 8.26101,2.88781 16.7182,5.20418 25.28341,6.99442 3.95214,0.81632 8.11879,1.55535 12.1876,2.14294 2.76866,0.40952 5.35534,0.7218 8.13231,1.01408 8.30401,0.86034 16.49645,1.23117 24.83777,1.17972 2.89138,-0.0181 5.69959,-0.0777 8.5453,-0.19437 13.55783,-0.55041 27.09102,-1.98504 40.43068,-4.48616 7.28532,-1.37425 14.52572,-3.09641 21.59115,-5.18307 6.73914,-1.99134 13.3906,-4.33687 19.84158,-6.9981 13.07477,-5.39114 25.55756,-12.29602 37.01263,-20.66567 2.39674,-1.74635 4.69988,-3.52507 6.93994,-5.33905 14.2367,-11.5795 26.80602,-25.46368 37.04236,-40.77903 2.85328,-4.22884 5.5239,-8.57872 8.06814,-12.9998 0.53829,-0.95373 1.21012,-2.1414 1.79287,-3.18963 7.13035,-12.94913 13.0011,-26.56678 17.8932,-40.50909 0.50381,-1.47227 1.05055,-3.02132 1.55395,-4.5409 2.13764,-6.29748 4.01165,-12.67999 5.89644,-19.05567 1.74995,-5.19472 5.04718,-9.91503 9.59297,-13.03149 7.45659,-5.28303 17.79479,-6.46635 26.07943,-2.43923 5.85821,2.74177 10.26175,7.659 14.37633,12.50249 8.39137,9.64539 15.69449,20.25806 21.44447,31.68609 8.8636,17.50372 14.18925,36.8285 15.20244,56.43794 1.59213,26.94381 -3.10138,54.20119 -13.32088,79.16597 -9.91185,24.0366 -25.07612,45.7913 -43.69324,63.89687 -23.18286,22.69676 -51.19304,40.09644 -81.00553,52.684 -39.80481,16.85528 -82.73144,25.59696 -125.78269,28.22566 -26.83852,1.63396 -53.83241,0.99213 -80.5369,-2.18365 -34.43406,-4.15058 -68.43041,-12.89418 -100.09807,-27.15047 -26.60953,-11.94545 -51.52319,-27.76351 -73.33046,-47.1603 -24.79134,-21.93786 -45.72049,-48.16677 -61.911,-77.02651 -20.15578,-35.63086 -33.58831,-74.79979 -41.70472,-114.84767 -9.60028,-47.10686 -11.96719,-95.42534 -10.31153,-143.38896 1.69487,-51.6741 7.8252,-103.47207 22.10935,-153.27151 10.78852,-37.59787 26.6193,-73.99613 48.98985,-106.19435 15.77545,-22.72158 34.91344,-43.16022 56.89255,-59.98593 20.93354,-16.10469 44.31737,-28.95495 68.9948,-38.33573 34.54689,-13.25394 71.31745,-20.101158 108.17791,-22.360589 28.09253,-1.736177 56.30038,-1.113098 84.34355,1.157643 36.21476,3.111794 72.31784,10.233095 106.14126,23.789526 32.54657,12.98404 62.73768,32.04847 87.98755,56.38759 28.12584,26.95388 50.43532,59.58112 67.43435,94.53318 9.61512,19.75951 17.6311,40.25771 24.78698,61.02285 26.21684,-6.81601 52.43368,-13.63203 78.65053,-20.44805 -4.48154,-14.08724 -9.26944,-28.00986 -14.59437,-41.7571 -9.03055,-23.42606 -19.86527,-46.28983 -32.60302,-67.98624 -5.20502,-8.88879 -10.81928,-17.71831 -16.66954,-26.22427 -4.35536,-6.33418 -8.89627,-12.54115 -13.58942,-18.57695 -14.08253,-18.11839 -29.81509,-35.05272 -47.08599,-50.233455 -3.45083,-3.037016 -7.08048,-6.091589 -10.69892,-9.018026 C 751.27594,62.69506 717.82609,43.507126 682.31481,29.939332 678.18645,28.359329 674.00268,26.839921 669.7848,25.378694 657.90195,21.280955 645.70002,17.674145 633.44705,14.634922 621.22859,11.597235 608.72784,9.0481923 596.23921,7.0191168 577.61241,3.9724826 558.52908,2.0313232 539.55828,1.0084986 524.36998,0.19019252 509.08436,-0.0541202 493.82098,0.00961338 Z M 540.71927,489.81157 c 23.18948,0.13765 46.44174,1.32713 69.33483,5.20149 4.01352,0.68718 8.19338,1.23532 11.78917,3.27615 7.85997,4.50757 12.17758,14.4136 10.00594,23.22992 -2.88425,18.93084 -6.69456,37.88966 -13.95609,55.68277 -6.51015,16.16783 -15.86598,31.44922 -28.78318,43.29256 -11.86033,10.8874 -26.57754,18.42862 -42.08894,22.56152 -13.05724,3.52363 -26.59037,4.95721 -40.0785,5.40124 -14.03681,0.4001 -28.19525,-0.7324 -41.79227,-4.36787 -13.44068,-3.52307 -26.43251,-9.12204 -37.77621,-17.20238 -9.34484,-6.757 -17.39993,-15.63982 -21.98399,-26.31254 -3.25427,-7.45603 -4.6526,-15.60967 -4.76832,-23.71384 -0.22885,-12.63231 2.55849,-25.35092 8.27927,-36.63001 6.32362,-12.08313 16.35617,-22.0439 28.10104,-28.88945 13.27177,-8.01206 28.22925,-12.7575 43.3106,-15.99519 19.84271,-4.16548 40.18487,-5.21538 60.40665,-5.53437 z" />
</svg>
